<svg width="1024" height="177" viewBox="0 0 1024 177" fill="none" xmlns="http://www.w3.org/2000/svg">
<path fill-rule="evenodd" clip-rule="evenodd" d="M1024 73L981.333 86.4815C938.667 99.963 853.333 126.926 768 128.852C682.667 130.778 597.333 107.667 512 96.1111C426.667 84.5556 341.333 84.5556 256 88.4074C170.667 92.2593 85.3333 99.963 42.6666 103.815L0 107.667V177H42.6666C85.3333 177 170.667 177 256 177C341.333 177 426.667 177 512 177C597.333 177 682.667 177 768 177C853.333 177 938.667 177 981.333 177H1024V73Z" fill="#3F3D56"/>
<path d="M317 1H708" stroke="#ECEFF2"/>
</svg>
